%TF.GenerationSoftware,KiCad,Pcbnew,8.0.4*%
%TF.CreationDate,2025-02-09T10:04:46+05:30*%
%TF.ProjectId,CAR PCB,43415220-5043-4422-9e6b-696361645f70,rev?*%
%TF.SameCoordinates,Original*%
%TF.FileFunction,Paste,Top*%
%TF.FilePolarity,Positive*%
%FSLAX46Y46*%
G04 Gerber Fmt 4.6, Leading zero omitted, Abs format (unit mm)*
G04 Created by KiCad (PCBNEW 8.0.4) date 2025-02-09 10:04:46*
%MOMM*%
%LPD*%
G01*
G04 APERTURE LIST*
G04 Aperture macros list*
%AMRoundRect*
0 Rectangle with rounded corners*
0 $1 Rounding radius*
0 $2 $3 $4 $5 $6 $7 $8 $9 X,Y pos of 4 corners*
0 Add a 4 corners polygon primitive as box body*
4,1,4,$2,$3,$4,$5,$6,$7,$8,$9,$2,$3,0*
0 Add four circle primitives for the rounded corners*
1,1,$1+$1,$2,$3*
1,1,$1+$1,$4,$5*
1,1,$1+$1,$6,$7*
1,1,$1+$1,$8,$9*
0 Add four rect primitives between the rounded corners*
20,1,$1+$1,$2,$3,$4,$5,0*
20,1,$1+$1,$4,$5,$6,$7,0*
20,1,$1+$1,$6,$7,$8,$9,0*
20,1,$1+$1,$8,$9,$2,$3,0*%
G04 Aperture macros list end*
%ADD10RoundRect,0.150000X-0.512500X-0.150000X0.512500X-0.150000X0.512500X0.150000X-0.512500X0.150000X0*%
%ADD11RoundRect,0.237500X-0.300000X-0.237500X0.300000X-0.237500X0.300000X0.237500X-0.300000X0.237500X0*%
%ADD12RoundRect,0.237500X0.300000X0.237500X-0.300000X0.237500X-0.300000X-0.237500X0.300000X-0.237500X0*%
%ADD13RoundRect,0.475000X2.275000X0.475000X-2.275000X0.475000X-2.275000X-0.475000X2.275000X-0.475000X0*%
%ADD14RoundRect,0.475000X0.900000X0.475000X-0.900000X0.475000X-0.900000X-0.475000X0.900000X-0.475000X0*%
%ADD15RoundRect,0.475000X-0.475000X0.900000X-0.475000X-0.900000X0.475000X-0.900000X0.475000X0.900000X0*%
%ADD16RoundRect,0.237500X0.237500X-0.300000X0.237500X0.300000X-0.237500X0.300000X-0.237500X-0.300000X0*%
%ADD17RoundRect,0.250000X-0.450000X0.350000X-0.450000X-0.350000X0.450000X-0.350000X0.450000X0.350000X0*%
%ADD18RoundRect,0.051250X-0.733750X-0.153750X0.733750X-0.153750X0.733750X0.153750X-0.733750X0.153750X0*%
%ADD19RoundRect,0.250001X-0.462499X-0.624999X0.462499X-0.624999X0.462499X0.624999X-0.462499X0.624999X0*%
%ADD20RoundRect,0.250001X-1.262499X-1.974999X1.262499X-1.974999X1.262499X1.974999X-1.262499X1.974999X0*%
%ADD21RoundRect,0.237500X-0.237500X0.300000X-0.237500X-0.300000X0.237500X-0.300000X0.237500X0.300000X0*%
%ADD22RoundRect,0.250000X0.625000X-0.400000X0.625000X0.400000X-0.625000X0.400000X-0.625000X-0.400000X0*%
%ADD23RoundRect,0.150000X-0.875000X-0.150000X0.875000X-0.150000X0.875000X0.150000X-0.875000X0.150000X0*%
G04 APERTURE END LIST*
D10*
%TO.C,U202*%
X173874000Y-104018000D03*
X173874000Y-104968000D03*
X173874000Y-105918000D03*
X176149000Y-105918000D03*
X176149000Y-104018000D03*
%TD*%
D11*
%TO.C,C101*%
X154331500Y-139192000D03*
X156056500Y-139192000D03*
%TD*%
D12*
%TO.C,C206*%
X195680500Y-104394000D03*
X193955500Y-104394000D03*
%TD*%
D13*
%TO.C,U201*%
X187551000Y-59661000D03*
X178061000Y-59571000D03*
D14*
X173101000Y-64021000D03*
X173101000Y-68471000D03*
X173101000Y-72921000D03*
X173101000Y-77371000D03*
X173101000Y-81821000D03*
X173101000Y-86271000D03*
X173101000Y-90721000D03*
D15*
X175761000Y-95171000D03*
X180361000Y-95171000D03*
X184961000Y-95171000D03*
X189561000Y-95171000D03*
D14*
X192101000Y-90721000D03*
X192101000Y-86271000D03*
X192101000Y-81821000D03*
X192101000Y-77371000D03*
X192101000Y-72921000D03*
X192101000Y-68471000D03*
X192101000Y-64021000D03*
%TD*%
D16*
%TO.C,C207*%
X181991000Y-104394000D03*
X181991000Y-102669000D03*
%TD*%
D17*
%TO.C,R101*%
X138049000Y-153194000D03*
X138049000Y-155194000D03*
%TD*%
D10*
%TO.C,U102*%
X148292000Y-139225000D03*
X148292000Y-140175000D03*
X148292000Y-141125000D03*
X150567000Y-141125000D03*
X150567000Y-139225000D03*
%TD*%
D11*
%TO.C,C401*%
X116104500Y-118491000D03*
X117829500Y-118491000D03*
%TD*%
D18*
%TO.C,U204*%
X184963000Y-101802000D03*
X184963000Y-102452000D03*
X184963000Y-103102000D03*
X184963000Y-103752000D03*
X184963000Y-104402000D03*
X184963000Y-105052000D03*
X184963000Y-105702000D03*
X190703000Y-105702000D03*
X190703000Y-105052000D03*
X190703000Y-104402000D03*
X190703000Y-103752000D03*
X190703000Y-103102000D03*
X190703000Y-102452000D03*
X190703000Y-101802000D03*
%TD*%
D19*
%TO.C,D101*%
X131191000Y-154940000D03*
X134166000Y-154940000D03*
%TD*%
D11*
%TO.C,C202*%
X187224500Y-107943000D03*
X188949500Y-107943000D03*
%TD*%
D20*
%TO.C,R701*%
X159920500Y-106299000D03*
X164945500Y-106299000D03*
%TD*%
D21*
%TO.C,C203*%
X169037000Y-95911500D03*
X169037000Y-97636500D03*
%TD*%
D12*
%TO.C,C201*%
X195680500Y-101720000D03*
X193955500Y-101720000D03*
%TD*%
D22*
%TO.C,R201*%
X167513000Y-85744000D03*
X167513000Y-82644000D03*
%TD*%
D23*
%TO.C,U701*%
X162150000Y-131826000D03*
X162150000Y-133096000D03*
X162150000Y-134366000D03*
X162150000Y-135636000D03*
X162150000Y-136906000D03*
X162150000Y-138176000D03*
X162150000Y-139446000D03*
X162150000Y-140716000D03*
X162150000Y-141986000D03*
X171450000Y-141986000D03*
X171450000Y-140716000D03*
X171450000Y-139446000D03*
X171450000Y-138176000D03*
X171450000Y-136906000D03*
X171450000Y-135636000D03*
X171450000Y-134366000D03*
X171450000Y-133096000D03*
X171450000Y-131826000D03*
%TD*%
D21*
%TO.C,C102*%
X142748000Y-138991000D03*
X142748000Y-140716000D03*
%TD*%
M02*
