M48
; DRILL file {KiCad 8.0.4} date 2025-02-09T10:04:48+0530
; FORMAT={-:-/ absolute / metric / decimal}
; #@! TF.CreationDate,2025-02-09T10:04:48+05:30
; #@! TF.GenerationSoftware,Kicad,Pcbnew,8.0.4
; #@! TF.FileFunction,MixedPlating,1,2
FMAT,2
METRIC
; #@! TA.AperFunction,Plated,PTH,ViaDrill
T1C0.300
; #@! TA.AperFunction,Plated,PTH,ComponentDrill
T2C0.950
; #@! TA.AperFunction,Plated,PTH,ComponentDrill
T3C1.000
; #@! TA.AperFunction,Plated,PTH,ComponentDrill
T4C1.100
; #@! TA.AperFunction,Plated,PTH,ComponentDrill
T5C1.300
; #@! TA.AperFunction,Plated,PTH,ComponentDrill
T6C1.500
; #@! TA.AperFunction,Plated,PTH,ComponentDrill
T7C1.700
%
G90
G05
T1
X93.98Y-61.087
X93.98Y-62.357
X93.98Y-63.627
X93.98Y-64.897
X93.98Y-66.167
X93.98Y-85.344
X93.98Y-102.743
X93.98Y-104.013
X93.98Y-105.283
X93.98Y-106.553
X93.98Y-107.823
X95.25Y-61.087
X95.25Y-62.357
X95.25Y-63.627
X95.25Y-64.897
X95.25Y-66.167
X95.25Y-102.743
X95.25Y-104.013
X95.25Y-105.283
X95.25Y-106.553
X95.25Y-107.823
X96.52Y-61.087
X96.52Y-62.357
X96.52Y-63.627
X96.52Y-64.897
X96.52Y-66.167
X96.52Y-102.743
X96.52Y-104.013
X96.52Y-105.283
X96.52Y-106.553
X96.52Y-107.823
X97.79Y-61.087
X97.79Y-62.357
X97.79Y-63.627
X97.79Y-64.897
X97.79Y-66.167
X97.79Y-102.743
X97.79Y-104.013
X97.79Y-105.283
X97.79Y-106.553
X97.79Y-107.823
X99.06Y-61.087
X99.06Y-62.357
X99.06Y-63.627
X99.06Y-64.897
X99.06Y-66.167
X99.06Y-102.743
X99.06Y-104.013
X99.06Y-105.283
X99.06Y-106.553
X99.06Y-107.823
X99.314Y-135.382
X99.314Y-136.652
X99.314Y-137.922
X99.314Y-139.192
X99.314Y-140.462
X99.314Y-141.732
X99.314Y-144.272
X99.314Y-145.542
X99.314Y-146.812
X99.72Y-73.863
X99.72Y-79.299
X100.33Y-61.087
X100.33Y-62.357
X100.33Y-63.627
X100.33Y-64.897
X100.33Y-66.167
X100.33Y-102.743
X100.33Y-104.013
X100.33Y-105.283
X100.33Y-106.553
X100.33Y-107.823
X101.6Y-61.087
X101.6Y-62.357
X101.6Y-63.627
X101.6Y-64.897
X101.6Y-66.167
X101.6Y-102.743
X101.6Y-104.013
X101.6Y-105.283
X101.6Y-106.553
X101.6Y-107.823
X102.21Y-73.66
X102.21Y-79.197
X102.87Y-61.087
X102.87Y-62.357
X102.87Y-63.627
X102.87Y-64.897
X102.87Y-66.167
X102.87Y-102.743
X102.87Y-104.013
X102.87Y-105.283
X102.87Y-106.553
X102.87Y-107.823
X104.14Y-61.087
X104.14Y-62.357
X104.14Y-63.627
X104.14Y-64.897
X104.14Y-66.167
X104.14Y-102.743
X104.14Y-104.013
X104.14Y-105.283
X104.14Y-106.553
X104.14Y-107.823
X105.41Y-61.087
X105.41Y-62.357
X105.41Y-63.627
X105.41Y-64.897
X105.41Y-66.167
X105.41Y-102.743
X105.41Y-104.013
X105.41Y-105.283
X105.41Y-106.553
X105.41Y-107.823
X112.217Y-102.667
X114.173Y-61.087
X114.173Y-62.357
X114.173Y-63.627
X114.173Y-64.897
X114.173Y-66.167
X114.427Y-85.217
X114.808Y-117.983
X114.808Y-118.618
X114.808Y-119.253
X115.443Y-61.087
X115.443Y-62.357
X115.443Y-63.627
X115.443Y-64.897
X115.443Y-66.167
X116.713Y-61.087
X116.713Y-62.357
X116.713Y-63.627
X116.713Y-64.897
X116.713Y-66.167
X117.475Y-117.348
X117.475Y-119.634
X117.983Y-61.087
X117.983Y-62.357
X117.983Y-63.627
X117.983Y-64.897
X117.983Y-66.167
X118.999Y-117.348
X118.999Y-119.634
X119.253Y-61.087
X119.253Y-62.357
X119.253Y-63.627
X119.253Y-64.897
X119.253Y-66.167
X120.523Y-61.087
X120.523Y-62.357
X120.523Y-63.627
X120.523Y-64.897
X120.523Y-66.167
X121.793Y-61.087
X121.793Y-62.357
X121.793Y-63.627
X121.793Y-64.897
X121.793Y-66.167
X123.063Y-61.087
X123.063Y-62.357
X123.063Y-63.627
X123.063Y-64.897
X123.063Y-66.167
X124.333Y-61.087
X124.333Y-62.357
X124.333Y-63.627
X124.333Y-64.897
X124.333Y-66.167
X125.603Y-61.087
X125.603Y-62.357
X125.603Y-63.627
X125.603Y-64.897
X125.603Y-66.167
X127.254Y-135.382
X127.254Y-136.652
X127.254Y-137.922
X127.254Y-139.192
X127.254Y-140.462
X127.254Y-141.732
X127.254Y-144.272
X127.254Y-145.542
X127.254Y-146.812
X143.637Y-58.166
X143.637Y-59.436
X143.637Y-60.706
X143.637Y-61.976
X143.637Y-63.246
X143.637Y-64.516
X143.637Y-65.786
X143.637Y-67.056
X143.637Y-68.326
X143.637Y-69.596
X143.637Y-70.866
X143.637Y-72.136
X143.637Y-73.406
X143.637Y-74.676
X143.637Y-75.946
X146.177Y-138.557
X146.177Y-139.319
X146.304Y-140.208
X146.761Y-79.248
X146.939Y-138.557
X146.939Y-139.319
X147.066Y-140.208
X147.371Y-82.499
X151.638Y-140.208
X151.765Y-138.176
X152.4Y-140.208
X152.527Y-138.176
X153.162Y-140.208
X153.289Y-138.176
X158.75Y-77.978
X159.893Y-147.701
X159.893Y-148.971
X159.893Y-150.241
X159.893Y-151.511
X159.893Y-152.781
X159.893Y-154.051
X159.893Y-155.321
X159.893Y-156.591
X159.893Y-157.861
X159.893Y-159.131
X161.417Y-77.978
X165.862Y-147.701
X165.862Y-148.971
X165.862Y-150.241
X165.862Y-151.511
X165.862Y-152.781
X165.862Y-154.051
X165.862Y-155.321
X165.862Y-156.591
X165.862Y-157.861
X165.862Y-159.131
X167.64Y-88.253
X167.64Y-89.253
X167.64Y-90.253
X167.64Y-91.253
X167.64Y-92.253
X168.64Y-88.253
X168.64Y-89.253
X168.64Y-90.253
X168.64Y-91.253
X168.64Y-92.253
X169.64Y-88.253
X169.64Y-89.253
X169.64Y-90.253
X169.64Y-91.253
X169.64Y-92.253
X170.561Y-72.383
X170.561Y-73.399
X171.431Y-94.164
X171.431Y-95.164
X171.431Y-96.164
X172.431Y-94.164
X172.431Y-95.164
X172.431Y-96.164
X173.228Y-141.986
X173.431Y-94.164
X173.431Y-95.164
X173.431Y-96.164
X173.99Y-141.986
X175.133Y-90.721
X177.419Y-104.013
X177.419Y-105.918
X178.435Y-73.279
X178.435Y-76.708
X178.689Y-97.409
X178.729Y-81.875
X179.959Y-85.725
X179.959Y-86.71
X179.959Y-87.71
X179.959Y-88.71
X179.959Y-89.71
X179.959Y-90.71
X181.259Y-85.71
X181.259Y-86.71
X181.259Y-87.71
X181.259Y-88.71
X181.259Y-89.71
X181.259Y-90.71
X181.259Y-91.71
X181.259Y-92.71
X182.559Y-85.71
X182.559Y-86.71
X182.559Y-87.71
X182.559Y-88.71
X182.559Y-89.71
X182.559Y-90.71
X182.559Y-91.71
X182.559Y-92.71
X183.261Y-102.87
X183.515Y-103.632
X183.859Y-85.71
X183.859Y-86.71
X183.859Y-87.71
X183.859Y-88.71
X183.859Y-89.71
X183.859Y-90.71
X183.859Y-91.71
X183.859Y-92.71
X185.159Y-85.71
X185.159Y-86.71
X185.159Y-87.71
X185.159Y-88.71
X185.159Y-89.71
X185.159Y-90.71
X185.159Y-91.71
X185.159Y-92.71
X186.436Y-102.489
X187.071Y-102.489
X187.325Y-92.837
X188.722Y-102.489
X189.357Y-102.489
X190.119Y-64.008
X192.024Y-104.394
X192.786Y-104.394
X194.691Y-89.789
X194.691Y-91.694
X196.342Y-78.867
X196.342Y-82.55
X196.342Y-86.995
X197.739Y-74.549
X198.247Y-78.867
X198.247Y-82.55
X198.247Y-86.995
X199.009Y-75.819
X201.549Y-73.025
X201.549Y-74.93
X201.676Y-100.965
X205.232Y-73.025
X205.232Y-74.93
X208.28Y-73.025
X208.28Y-74.93
T2
X80.01Y-109.982
X80.01Y-112.482
X80.01Y-114.982
X80.01Y-117.482
X211.709Y-84.067
X211.709Y-86.567
X211.709Y-89.067
X211.709Y-91.567
X211.709Y-100.069
X211.709Y-102.569
X211.709Y-105.069
X211.836Y-112.776
X211.836Y-115.276
X211.836Y-117.776
X211.836Y-120.276
X211.836Y-122.776
T3
X70.104Y-102.362
X72.644Y-102.362
X75.184Y-102.362
X77.724Y-102.362
X80.264Y-102.362
X82.804Y-102.362
X85.344Y-102.362
X92.202Y-131.572
X92.202Y-149.352
X132.842Y-131.572
X132.842Y-149.352
X135.231Y-59.436
X135.231Y-61.976
X135.231Y-64.516
X135.231Y-67.056
X135.231Y-69.596
X135.231Y-72.136
X135.231Y-74.676
X135.231Y-77.216
X135.231Y-79.756
X135.231Y-82.296
X135.231Y-84.836
X135.231Y-87.376
X135.231Y-89.916
X135.231Y-92.456
X135.231Y-94.996
X135.231Y-97.536
X135.231Y-100.076
X135.231Y-102.616
X135.231Y-105.156
X135.231Y-107.696
X151.281Y-59.436
X151.281Y-61.976
X151.281Y-64.516
X151.281Y-67.056
X151.281Y-69.596
X151.281Y-72.136
X151.281Y-74.676
X151.281Y-77.216
X151.281Y-79.756
X151.281Y-82.296
X151.281Y-84.836
X151.281Y-87.376
X151.281Y-89.916
X151.281Y-92.456
X151.281Y-94.996
X151.281Y-97.536
X151.281Y-100.076
X151.281Y-102.616
X151.281Y-105.156
X151.281Y-107.696
T4
X93.918Y-57.514
X96.458Y-57.514
X98.998Y-57.514
X101.538Y-57.514
X102.108Y-114.554
X104.648Y-114.554
X107.188Y-114.554
X109.728Y-114.554
X112.268Y-114.554
X114.808Y-114.554
X117.348Y-114.554
X117.918Y-57.514
X120.458Y-57.514
X122.998Y-57.514
X125.538Y-57.514
T5
X72.69Y-137.927
X72.69Y-143.007
X178.484Y-134.461
X178.484Y-146.661
X180.091Y-157.353
X184.484Y-132.461
X185.091Y-157.353
X190.091Y-157.353
X190.484Y-134.461
X190.484Y-146.661
X195.091Y-157.353
X195.772Y-134.461
X195.772Y-146.661
X200.091Y-157.353
X201.772Y-132.461
X205.091Y-157.353
X207.772Y-134.461
X207.772Y-146.661
X210.091Y-157.353
X213.059Y-134.461
X213.059Y-146.661
X215.091Y-157.353
X219.059Y-132.461
X220.091Y-157.353
X225.059Y-134.461
X225.059Y-146.661
T6
X213.106Y-73.914
T7
X210.566Y-71.374
X210.566Y-76.454
X215.646Y-71.374
X215.646Y-76.454
M30
